<?xml version="1.0" standalone="no"?>
<svg version="1.0" xmlns="http://www.w3.org/2000/svg"
 width="1720.000000pt" height="1647.000000pt" viewBox="0 0 1720.000000 1647.000000"
 preserveAspectRatio="xMidYMid meet">

<g transform="translate(0.000000,1647.000000) scale(0.100000,-0.100000)"
 fill="#3A643B" stroke="none">
<path d="M9891 16123 c-16 -14 -54 -135 -161 -512 -77 -272 -141 -495 -143
-497 -2 -2 -20 1 -42 7 -21 6 -56 9 -77 7 -32 -3 -39 0 -43 17 -3 11 -28 148
-56 305 -28 156 -55 292 -60 302 -37 68 -149 38 -149 -40 0 -20 23 -167 52
-326 45 -247 50 -291 38 -298 -8 -5 -41 -24 -73 -43 l-57 -34 -24 37 c-12 20
-123 206 -246 412 -122 206 -230 383 -238 393 -10 11 -30 17 -57 17 -50 0 -85
-31 -85 -75 0 -20 79 -162 256 -457 141 -236 257 -434 257 -441 2 -14 -55
-106 -65 -107 -4 0 -115 65 -248 145 -167 100 -250 145 -271 145 -62 0 -100
-76 -64 -127 8 -12 129 -90 267 -174 139 -84 256 -155 260 -158 4 -3 1 -32 -7
-63 -25 -108 10 -272 83 -393 45 -73 140 -169 214 -213 118 -70 277 -104 389
-82 35 6 76 14 90 17 24 4 34 -11 200 -299 96 -166 184 -313 196 -325 30 -31
82 -31 112 1 44 47 36 68 -153 393 -97 167 -176 304 -176 307 0 2 18 15 40 30
l40 26 468 -221 c313 -149 478 -222 501 -223 38 0 81 40 81 75 0 58 -15 68
-376 238 -192 91 -397 188 -456 216 l-107 50 34 54 c19 30 36 59 38 64 2 6
130 -12 328 -47 178 -31 334 -56 346 -56 35 0 53 11 68 41 21 39 19 64 -7 93
-21 23 -49 30 -338 81 -173 30 -324 57 -336 60 -18 4 -21 12 -20 57 l1 52 480
203 c287 121 487 212 498 224 42 51 2 133 -66 133 -19 -1 -222 -81 -492 -196
l-459 -195 -39 65 c-32 53 -37 66 -26 77 8 7 129 97 269 200 140 103 265 198
278 212 29 31 28 75 -2 109 -48 57 -61 50 -383 -189 l-292 -217 -48 35 c-26
19 -55 40 -64 47 -15 12 -3 61 122 498 76 267 138 495 139 506 0 12 -9 33 -21
48 -25 32 -85 36 -118 9z m-341 -1164 c240 -38 422 -270 395 -503 -32 -287
-307 -482 -580 -411 -230 60 -387 295 -348 522 38 221 223 385 453 402 8 0 44
-4 80 -10z"/>
<path d="M7877 14590 c-132 -24 -230 -75 -321 -166 -65 -65 -112 -139 -149
-238 -29 -75 -31 -90 -32 -211 0 -115 3 -135 22 -170 46 -86 128 -128 200
-104 82 27 71 157 -14 159 -75 1 -57 214 30 362 56 95 161 173 268 197 156 36
374 -25 482 -135 94 -95 137 -237 117 -384 -26 -194 -130 -360 -277 -447 -45
-26 -57 -28 -198 -34 -230 -10 -375 -47 -580 -149 -66 -33 -159 -88 -207 -122
-201 -146 -305 -252 -784 -798 -488 -557 -724 -767 -1019 -910 -134 -65 -254
-106 -399 -135 -132 -27 -316 -43 -316 -29 0 26 -94 410 -117 479 -192 582
-664 983 -1121 952 -105 -7 -175 -30 -304 -100 -263 -141 -433 -351 -504 -623
-36 -135 -44 -366 -20 -534 35 -243 139 -569 251 -791 15 -28 24 -53 21 -56
-2 -3 -33 5 -68 17 -313 109 -641 36 -817 -182 -109 -134 -153 -271 -153 -478
-1 -205 52 -421 164 -675 270 -612 814 -1009 1555 -1134 211 -36 334 -45 593
-45 430 0 814 50 1274 165 336 84 396 112 396 182 0 46 -19 68 -97 113 -145
83 -304 276 -427 517 -171 335 -297 746 -485 1582 -38 171 -76 338 -84 373 -9
34 -14 62 -14 62 1 0 58 7 127 15 455 53 779 207 1156 552 127 116 304 307
594 638 392 449 531 589 693 703 452 317 979 330 1278 32 132 -132 177 -257
166 -468 -17 -354 -134 -605 -324 -699 -69 -34 -85 -38 -175 -41 -112 -5 -183
6 -307 49 -111 38 -164 88 -227 214 -55 113 -74 213 -56 307 37 198 185 330
373 332 67 1 81 -2 124 -29 65 -40 95 -97 95 -179 0 -109 -65 -206 -138 -206
-31 0 -72 -46 -72 -81 0 -15 11 -41 24 -56 21 -24 31 -28 69 -26 101 4 196 76
250 191 30 63 32 74 32 177 0 98 -3 116 -27 167 -123 263 -494 290 -734 53
-77 -76 -122 -155 -149 -260 -19 -76 -19 -231 1 -315 32 -139 135 -303 238
-381 125 -95 441 -155 618 -118 221 47 392 222 484 496 65 192 92 481 60 627
-47 207 -177 370 -412 513 -17 10 -13 14 36 36 135 60 280 63 393 7 125 -61
242 -216 295 -391 98 -319 0 -773 -243 -1134 -78 -116 -108 -184 -119 -275
-19 -164 72 -338 213 -407 48 -24 68 -28 141 -28 69 0 93 4 128 23 54 29 125
93 153 139 40 64 5 133 -69 133 -28 0 -43 -10 -90 -59 -32 -33 -70 -63 -85
-66 -110 -28 -220 82 -221 220 0 73 20 121 105 248 204 305 321 726 289 1037
-26 259 -102 430 -260 591 -95 97 -185 148 -298 170 -81 15 -219 7 -299 -19
-35 -11 -63 -17 -63 -15 0 3 13 28 30 54 75 122 110 247 110 395 0 116 -24
226 -67 307 -42 79 -174 206 -255 245 -128 62 -329 94 -451 72z m-4122 -2126
c271 -109 518 -396 639 -742 29 -83 116 -413 116 -438 0 -13 -115 5 -205 31
-49 15 -126 43 -171 64 -344 162 -622 519 -675 868 -17 114 -3 177 53 231 l40
39 67 -12 c36 -7 97 -26 136 -41z m-461 -46 c-49 -281 119 -667 410 -945 199
-191 455 -319 706 -354 41 -6 91 -14 110 -18 l34 -7 92 -409 c134 -598 202
-860 301 -1155 85 -256 209 -535 305 -687 22 -35 39 -66 36 -68 -15 -15 -418
172 -594 276 -490 288 -1012 767 -1395 1282 -93 124 -141 202 -207 332 -211
424 -314 830 -282 1122 31 296 168 503 425 645 28 15 54 28 58 28 5 0 5 -19 1
-42z m-678 -1938 c139 -18 283 -77 390 -162 23 -18 91 -91 151 -163 275 -326
645 -706 906 -930 158 -135 402 -318 539 -405 303 -191 663 -330 855 -330 38
0 54 -3 47 -10 -15 -15 -327 -86 -527 -119 -334 -57 -444 -66 -802 -65 -365 0
-488 12 -744 75 -492 121 -869 380 -1108 764 -199 319 -307 716 -259 954 45
223 188 362 401 390 33 5 62 9 65 10 3 0 42 -4 86 -9z"/>
<path d="M4245 14420 c-198 -32 -398 -146 -525 -302 -64 -79 -134 -219 -161
-323 -43 -167 -22 -390 51 -551 96 -212 304 -389 536 -456 115 -33 334 -33
449 0 296 85 524 328 590 627 21 95 16 308 -9 400 -42 152 -151 319 -275 422
-77 64 -237 144 -333 168 -83 20 -243 27 -323 15z m279 -200 c229 -58 411
-239 472 -470 23 -86 23 -234 0 -320 -85 -315 -400 -527 -712 -480 -442 67
-693 532 -498 925 134 273 448 419 738 345z"/>
<path d="M12303 13415 c-52 -36 -177 -261 -232 -418 -55 -157 -74 -272 -74
-457 -1 -132 4 -188 21 -278 27 -132 67 -259 118 -370 l36 -81 -11 -238 c-7
-130 -14 -239 -15 -241 -2 -2 -24 33 -49 76 -193 334 -514 568 -865 632 -74
13 -112 -1 -132 -49 -10 -25 -9 -46 10 -132 81 -381 269 -668 585 -894 76 -54
324 -185 352 -185 17 0 18 7 -17 -133 -87 -345 -200 -655 -360 -985 -219 -449
-522 -879 -874 -1241 -409 -422 -885 -786 -1316 -1009 -138 -72 -158 -86 -171
-121 -12 -31 6 -86 34 -106 38 -27 81 -18 191 40 276 144 587 352 877 586 l95
77 116 -28 c169 -41 289 -54 447 -47 345 16 620 139 852 384 48 50 96 112 109
137 21 45 21 46 3 83 -16 33 -27 41 -83 60 -225 75 -517 88 -746 33 -43 -10
-80 -17 -81 -16 -2 1 24 34 56 73 l60 70 58 -9 c68 -11 239 -3 368 17 136 21
258 60 381 120 243 118 454 327 574 569 55 111 62 165 27 199 -35 36 -97 42
-262 29 -226 -19 -378 -59 -553 -148 -57 -29 -102 -50 -100 -46 2 4 28 55 58
114 l54 107 56 11 c123 24 301 84 415 140 264 130 472 341 594 601 46 98 89
240 98 321 5 54 4 58 -26 89 -30 30 -35 31 -84 25 -212 -28 -463 -136 -653
-282 -39 -29 -74 -54 -77 -54 -3 0 3 26 12 58 10 31 28 100 41 152 12 52 26
99 31 104 4 5 56 21 116 37 501 128 854 462 979 924 34 126 32 166 -7 199 -37
31 -44 32 -166 5 -300 -65 -578 -226 -766 -444 -33 -38 -63 -71 -66 -73 -3 -1
-3 42 0 95 4 54 7 138 8 187 l1 90 54 80 c118 178 194 353 237 541 18 81 22
131 22 260 1 174 -11 251 -63 407 -48 145 -153 333 -200 358 -27 15 -72 12
-97 -5z m100 -353 c51 -120 69 -207 74 -362 6 -167 -8 -265 -59 -408 -32 -92
-111 -256 -127 -266 -6 -4 -25 41 -44 101 -107 332 -85 658 63 954 47 93 45
93 93 -19z m-928 -1297 c225 -109 382 -268 495 -500 44 -89 103 -259 98 -280
-4 -18 -140 49 -251 121 -160 105 -349 326 -429 501 -31 68 -78 198 -78 216 0
16 51 -2 165 -58z m1665 -100 c-91 -263 -294 -484 -563 -610 -102 -48 -263
-102 -273 -93 -9 10 79 180 139 266 68 99 202 235 297 301 118 83 340 188 402
190 16 1 16 -3 -2 -54z m-361 -1162 c-89 -260 -299 -486 -563 -608 -61 -29
-245 -95 -262 -95 -17 0 33 117 89 205 157 252 363 419 642 521 50 18 95 33
102 34 8 0 6 -17 -8 -57z m-349 -1132 c0 -16 -111 -165 -163 -219 -190 -195
-452 -312 -756 -338 l-85 -7 20 32 c37 57 137 171 193 220 146 125 274 199
442 255 133 45 349 80 349 57z m-700 -1032 l64 -12 -57 -53 c-216 -201 -529
-303 -837 -274 -129 12 -222 30 -218 41 5 14 115 93 197 142 140 83 314 144
477 166 83 12 284 6 374 -10z"/>
<path d="M14088 11978 c-18 -6 -46 -37 -82 -91 -257 -389 -312 -856 -154
-1307 17 -47 44 -111 60 -144 l30 -59 -23 -91 c-27 -114 -99 -333 -132 -406
l-25 -55 -1 64 c-2 173 -61 407 -142 562 -48 93 -77 119 -129 119 -33 0 -44
-7 -80 -47 -104 -118 -217 -319 -269 -480 -54 -165 -66 -249 -65 -453 1 -210
18 -319 80 -495 20 -55 38 -109 40 -120 4 -16 -23 -48 -123 -145 -206 -202
-432 -371 -663 -501 -52 -29 -102 -59 -111 -66 -24 -20 -29 -63 -14 -100 25
-60 84 -69 168 -27 155 79 374 225 553 370 l101 82 90 -18 c441 -91 825 -18
1134 215 161 120 319 317 319 395 0 89 -129 125 -440 125 -210 0 -284 -12
-462 -75 -60 -21 -108 -35 -108 -32 0 3 11 20 25 38 14 18 49 71 79 119 l54
86 144 3 c272 7 511 69 703 184 212 126 377 306 486 526 57 116 63 163 24 201
-23 24 -29 25 -167 25 -233 0 -416 -39 -607 -131 -97 -46 -221 -123 -300 -187
l-35 -27 8 25 c4 14 22 81 40 150 28 107 40 137 88 210 115 176 199 374 234
557 21 108 24 336 5 443 -19 109 -67 252 -118 354 -91 183 -141 231 -215 204z
m80 -351 c61 -146 76 -226 77 -407 0 -212 -22 -308 -117 -512 -67 -143 -78
-144 -117 -19 -52 164 -64 255 -58 436 4 130 10 178 31 257 39 148 124 336
146 323 4 -3 22 -38 38 -78z m-655 -1389 c47 -118 62 -210 61 -368 0 -165 -18
-256 -79 -407 -34 -86 -152 -293 -166 -293 -9 0 -44 136 -60 230 -15 96 -15
282 1 385 14 96 61 248 102 330 43 87 101 185 109 185 4 0 18 -28 32 -62z
m1427 -47 c0 -22 -106 -165 -170 -229 -191 -194 -450 -308 -744 -329 l-90 -6
35 48 c50 72 214 234 291 288 171 121 372 200 574 226 97 12 104 12 104 2z
m-553 -1079 c9 -6 -6 -27 -50 -72 -163 -166 -372 -274 -599 -310 -87 -14 -402
-10 -418 6 -5 5 18 32 61 69 177 150 376 249 594 295 94 19 387 28 412 12z"/>
<path d="M7007 11588 c-148 -149 -236 -254 -338 -407 -135 -200 -238 -445
-274 -646 -14 -79 -23 -313 -13 -355 3 -13 -47 -15 -396 -18 -363 -2 -401 -4
-419 -20 -34 -31 -38 -57 -22 -180 63 -477 266 -957 570 -1343 104 -132 216
-250 250 -265 23 -9 55 -10 130 -4 163 15 579 12 743 -5 469 -49 891 -173
1252 -368 140 -75 341 -214 453 -311 69 -60 106 -86 124 -86 49 0 456 258 729
462 749 560 1288 1244 1480 1876 39 129 42 179 15 213 l-19 24 -473 5 -472 5
-12 40 c-30 102 -102 187 -193 228 -68 31 -198 30 -267 -1 -89 -40 -170 -136
-195 -229 l-11 -43 -919 0 -920 0 0 61 c0 113 -48 249 -135 379 -25 38 -105
129 -178 202 -73 73 -151 158 -174 189 -74 96 -140 217 -174 317 -29 86 -32
109 -32 207 0 72 5 126 15 158 9 26 14 47 12 47 -3 0 -64 -60 -137 -132z
m4066 -1680 c-14 -40 -44 -116 -68 -168 l-41 -95 -2582 -3 -2581 -2 -12 42
c-14 52 -59 268 -59 286 0 9 544 12 2685 12 l2685 0 -27 -72z m-375 -694
c-242 -347 -610 -716 -1023 -1027 -131 -98 -473 -327 -547 -366 l-46 -25 -81
68 c-191 159 -486 329 -758 437 -486 191 -1101 280 -1665 239 l-137 -10 -45
48 c-138 147 -298 380 -401 583 l-66 129 2411 0 2411 0 -53 -76z"/>
<path d="M2233 8385 c-64 -28 -67 -65 -18 -264 149 -605 480 -1293 885 -1836
296 -398 686 -790 1085 -1090 745 -560 1657 -936 2692 -1110 114 -19 222 -35
241 -35 44 0 92 46 92 88 0 49 28 198 66 350 107 436 291 845 554 1238 294
437 737 842 1216 1109 149 83 164 97 164 148 0 36 -7 47 -77 119 -333 343
-894 640 -1498 792 -843 212 -1790 193 -2895 -59 -387 -88 -515 -105 -809
-105 -369 0 -672 57 -962 182 -220 95 -394 213 -561 380 -54 54 -102 98 -107
98 -5 0 -15 2 -23 5 -7 2 -27 -2 -45 -10z m274 -428 c265 -199 630 -337 1043
-394 90 -12 196 -17 375 -17 332 -1 473 16 850 104 370 86 675 138 1040 177
244 26 914 26 1130 0 550 -66 991 -192 1408 -404 213 -109 489 -295 579 -390
l28 -29 -68 -39 c-97 -57 -265 -169 -352 -235 -41 -31 -81 -60 -88 -64 -8 -5
-36 14 -78 52 -200 184 -534 337 -894 412 -297 61 -610 85 -1000 77 -471 -10
-845 -52 -1480 -167 -332 -60 -464 -77 -723 -91 -527 -30 -1061 63 -1432 251
l-109 55 -54 120 c-97 214 -252 625 -236 625 2 0 30 -19 61 -43z m4283 -1392
c302 -37 615 -107 892 -198 180 -60 318 -115 318 -127 0 -4 -7 -14 -16 -21
-60 -49 -341 -436 -439 -604 -9 -15 -17 -13 -80 24 -142 83 -376 170 -579 216
-201 44 -343 59 -586 59 -345 0 -553 -35 -895 -149 -412 -138 -750 -195 -1171
-198 l-201 -2 -49 40 c-85 68 -435 425 -535 545 -111 133 -241 301 -236 306 2
2 52 -16 113 -41 237 -96 424 -129 729 -129 349 0 701 50 1320 185 329 72 404
84 700 113 93 9 597 -4 715 -19z m-182 -1256 c194 -21 417 -76 588 -144 49
-20 90 -38 92 -40 2 -2 -19 -63 -46 -137 -28 -73 -67 -187 -88 -253 -20 -66
-38 -123 -40 -126 -2 -4 -48 4 -101 17 -403 98 -842 91 -1183 -18 l-94 -30
-51 17 c-184 65 -534 228 -769 358 l-129 72 149 6 c231 10 385 42 619 129 228
84 432 135 615 153 83 9 349 6 438 -4z"/>
<path d="M13105 7809 c-1683 -102 -3056 -531 -4040 -1263 -316 -236 -616 -530
-838 -824 -364 -480 -617 -1055 -687 -1561 -14 -100 -1 -147 45 -167 86 -36
746 -1 1185 62 705 101 1482 343 2015 628 414 222 759 454 1095 736 181 152
536 509 694 699 406 487 734 1018 931 1507 42 104 43 123 9 163 l-26 31 -121
-1 c-67 -1 -185 -6 -262 -10z m-47 -204 c-12 -13 -683 -432 -687 -429 -8 7
189 394 201 395 7 0 96 9 198 19 191 18 297 24 288 15z m-805 -232 c-47 -98
-109 -227 -137 -286 l-51 -108 -223 -140 c-123 -77 -226 -139 -228 -136 -2 2
88 181 200 398 l204 394 143 26 c79 15 152 27 161 28 13 1 -2 -39 -69 -176z
m909 -37 c-44 -85 -97 -183 -118 -218 l-38 -64 -70 -3 c-39 -1 -151 -8 -249
-14 -97 -7 -176 -9 -175 -5 3 9 709 456 721 457 5 1 -27 -68 -71 -153z m-1384
106 c-1 -4 -112 -220 -246 -479 l-243 -472 -240 -151 c-133 -83 -247 -154
-254 -156 -7 -3 102 257 243 577 l257 583 50 14 c64 19 394 90 418 91 10 1 17
-3 15 -7z m-720 -171 c-1 -5 -129 -294 -283 -643 l-280 -635 -249 -157 c-137
-86 -251 -155 -253 -152 -2 2 133 321 301 710 168 388 306 714 306 725 0 17
26 29 178 77 97 31 195 62 217 69 48 16 68 18 63 6z m-1021 -1003 l-334 -773
-277 -174 c-152 -96 -278 -172 -280 -170 -2 2 158 378 356 835 l360 832 121
58 c149 71 381 173 385 169 2 -2 -147 -351 -331 -777z m2839 575 c-10 -24
-194 -288 -214 -305 -14 -13 -92 -16 -502 -22 -419 -6 -482 -5 -465 7 11 8
119 77 240 153 l220 139 305 21 c403 28 424 29 416 7z m-3652 -1030 l-367
-850 -219 -137 c-120 -76 -220 -137 -222 -135 -2 2 81 229 184 504 102 275
232 624 289 775 l102 275 117 92 c185 146 469 340 480 328 2 -1 -162 -385
-364 -852z m3276 519 c0 -11 -108 -141 -241 -289 -76 -85 -117 -123 -132 -123
-44 -1 -1182 113 -1189 119 -4 3 91 68 211 143 l217 137 540 9 c296 5 551 9
567 10 15 1 27 -2 27 -6z m-3854 -474 c-197 -541 -491 -1326 -501 -1337 -17
-18 -389 -251 -393 -246 -7 7 40 181 88 325 127 384 328 751 594 1084 69 86
232 266 242 266 2 0 -11 -42 -30 -92z m2677 -50 c345 -34 627 -65 627 -69 0
-8 -196 -181 -319 -282 l-96 -78 -55 5 c-30 3 -359 29 -730 57 -371 28 -677
53 -680 56 -3 2 2 9 10 13 8 5 139 88 290 184 151 95 286 174 300 175 14 1
307 -26 653 -61z m-778 -538 c374 -28 693 -54 709 -58 29 -7 24 -11 -110 -98
-147 -96 -283 -176 -449 -264 l-100 -53 -665 82 c-366 45 -673 86 -684 90 -14
5 44 46 264 184 258 162 286 176 319 172 20 -3 342 -28 716 -55z m-920 -541
c330 -40 604 -75 608 -79 12 -11 -222 -98 -479 -179 l-120 -38 -541 51 c-298
28 -544 53 -546 56 -3 3 90 65 206 138 177 111 217 132 242 129 17 -3 300 -37
630 -78z m-980 -389 c182 -17 346 -33 365 -37 l35 -6 -30 -8 c-44 -13 -338
-56 -500 -73 -161 -17 -504 -40 -529 -34 -23 5 271 188 303 188 14 0 175 -14
356 -30z"/>
<path d="M611 1563 c-151 -615 -276 -1124 -279 -1131 -3 -9 37 -12 182 -12
102 0 186 1 186 3 0 5 79 399 85 425 l5 22 264 0 263 0 43 -212 c23 -117 45
-219 47 -225 7 -18 363 -19 363 -1 0 7 -121 512 -270 1123 -148 611 -270 1114
-270 1118 0 4 -78 7 -173 7 l-172 0 -274 -1117z m539 111 c49 -241 92 -449 95
-461 l5 -23 -195 0 c-107 0 -195 2 -195 4 0 5 178 875 185 905 3 13 8 21 11
19 2 -3 45 -202 94 -444z"/>
<path d="M2940 1550 l0 -1130 175 0 175 0 2 692 3 693 150 -448 150 -448 99 3
99 3 153 455 152 455 1 -702 1 -703 175 0 175 0 0 1130 0 1130 -159 0 -159 0
-10 -27 c-92 -257 -414 -1129 -421 -1140 -8 -16 -29 38 -316 820 l-128 347
-159 0 -158 0 0 -1130z"/>
<path d="M5790 1551 l0 -1131 175 0 175 0 0 465 0 466 102 -3 101 -3 146 -460
147 -460 182 -3 c103 -1 182 1 182 7 0 4 -74 230 -165 501 -92 271 -165 493
-163 494 134 87 191 167 235 326 15 53 18 103 17 270 -1 225 -13 298 -70 415
-32 66 -125 158 -187 185 -111 49 -143 53 -519 57 l-358 5 0 -1131z m658 794
c88 -37 122 -111 129 -286 9 -191 -20 -299 -94 -356 -36 -27 -39 -28 -190 -31
l-153 -3 0 345 0 346 135 0 c100 0 145 -4 173 -15z"/>
<path d="M8202 1773 c4 -998 1 -948 66 -1081 37 -76 137 -181 211 -221 169
-90 408 -94 580 -10 89 44 178 136 225 230 67 136 66 116 66 1102 l0 887 -175
0 -175 0 -2 -902 c-3 -859 -4 -905 -22 -938 -51 -96 -144 -141 -246 -119 -71
16 -118 52 -148 117 l-27 57 -3 893 -3 892 -175 0 -175 0 3 -907z"/>
<path d="M10540 2520 l0 -160 190 0 190 0 0 -970 0 -970 175 0 175 0 0 970 0
970 190 0 190 0 0 160 0 160 -555 0 -555 0 0 -160z"/>
<path d="M13110 2639 c-6 -22 -130 -525 -276 -1117 -145 -593 -266 -1083 -269
-1090 -4 -10 34 -12 182 -10 l187 3 45 223 44 222 262 0 263 0 6 -25 c8 -31
86 -412 86 -420 0 -3 84 -5 186 -5 172 0 185 1 180 18 -3 9 -125 510 -271
1112 -146 602 -268 1103 -271 1113 -5 15 -22 17 -174 17 l-169 0 -11 -41z
m279 -984 c50 -247 91 -453 91 -457 0 -5 -87 -8 -194 -8 l-194 0 43 208 c24
114 67 323 96 465 29 142 55 254 59 250 4 -4 48 -210 99 -458z"/>
<path d="M15170 1550 l0 -1130 175 0 175 0 0 692 c0 380 3 688 8 684 4 -4 73
-204 153 -444 l146 -437 99 -3 99 -3 152 453 151 453 1 -697 1 -698 175 0 175
0 0 1130 0 1130 -157 0 -158 0 -215 -590 c-118 -324 -217 -590 -220 -590 -3 0
-102 264 -221 588 l-217 587 -161 3 -161 2 0 -1130z"/>
</g>
</svg>
