<svg width="16" height="16" viewBox="0 0 16 16" fill="none" xmlns="http://www.w3.org/2000/svg">
<g clip-path="url(#clip0_2_93)">
<path d="M6.99998 13.6673L13.6666 7.00065C13.9782 6.69537 14.2261 6.33136 14.396 5.92967C14.566 5.52798 14.6546 5.09658 14.6568 4.66042C14.659 4.22426 14.5748 3.79198 14.4089 3.3886C14.243 2.98521 13.9988 2.61871 13.6903 2.3103C13.3819 2.00188 13.0154 1.75766 12.612 1.59177C12.2087 1.42587 11.7764 1.34159 11.3402 1.34379C10.9041 1.34599 10.4727 1.43464 10.071 1.6046C9.66928 1.77456 9.30527 2.02247 8.99998 2.33399L2.33332 9.00065C2.0218 9.30594 1.77389 9.66995 1.60393 10.0716C1.43397 10.4733 1.34532 10.9047 1.34312 11.3409C1.34092 11.7771 1.4252 12.2093 1.5911 12.6127C1.75699 13.0161 2.00121 13.3826 2.30963 13.691C2.61804 13.9994 2.98454 14.2436 3.38793 14.4095C3.79131 14.5754 4.22358 14.6597 4.65975 14.6575C5.09591 14.6553 5.52731 14.5667 5.929 14.3967C6.33069 14.2267 6.6947 13.9788 6.99998 13.6673Z" stroke="#3A643B" stroke-width="1.33333" stroke-linecap="round" stroke-linejoin="round"/>
<path d="M5.66669 5.66669L10.3334 10.3334" stroke="#3A643B" stroke-width="1.33333" stroke-linecap="round" stroke-linejoin="round"/>
</g>
<defs>
<clipPath id="clip0_2_93">
<rect width="16" height="16" fill="white"/>
</clipPath>
</defs>
</svg>
