<svg width="21" height="21" viewBox="0 0 21 21" fill="none" xmlns="http://www.w3.org/2000/svg">
<g id="icon">
<path id="Vector" d="M9.74695 3.23357C10.0532 2.60547 10.9482 2.60547 11.2544 3.23357L12.882 6.57212C13.0032 6.82079 13.2393 6.99366 13.513 7.03416L17.1711 7.57554C17.8554 7.6768 18.1297 8.51637 17.6372 9.00209L14.9783 11.6242C14.7835 11.8163 14.6946 12.0915 14.7403 12.3613L15.3658 16.0539C15.4821 16.7403 14.7595 17.2613 14.145 16.9341L10.8948 15.2035C10.6484 15.0723 10.3529 15.0723 10.1066 15.2035L6.8564 16.9341C6.24184 17.2613 5.51925 16.7403 5.63553 16.0539L6.26104 12.3613C6.30674 12.0915 6.21792 11.8163 6.02307 11.6242L3.36422 9.00209C2.8717 8.51637 3.14597 7.6768 3.83026 7.57554L7.48838 7.03416C7.76205 6.99366 7.99813 6.82079 8.11936 6.57212L9.74695 3.23357Z" fill="#F79624"/>
</g>
</svg>
